# Blender v2.78 (sub 0) OBJ File: ''
# www.blender.org
mtllib BlueLinedWall.mtl
o Cube
v 3.510716 -0.547252 -7.093257
v 3.510716 -0.547252 7.093257
v -3.510717 -0.547252 7.093255
v -3.510715 -0.547252 -7.093259
v 3.510718 0.547252 -7.093254
v 3.510714 0.547252 7.093261
v -3.510718 0.547252 7.093254
v -3.510716 0.547252 -7.093257
vt 0.8553 0.0390
vt 0.8553 0.9420
vt 0.1397 0.9420
vt 0.1397 0.0390
vt 0.9339 0.9562
vt 0.0461 0.9562
vt 0.0461 0.0048
vt 0.9339 0.0048
vt 0.7073 0.7536
vt 0.2357 0.7677
vt 0.2292 0.5512
vt 0.7008 0.5371
vt 0.9626 0.3430
vt 0.9626 0.6725
vt 0.0124 0.6725
vt 0.0124 0.3430
vt 0.3381 0.0889
vt 0.7232 0.0679
vt 0.7646 0.8303
vt 0.3795 0.8512
vt 0.9125 0.0130
vt 0.9125 0.3426
vt -0.0377 0.3426
vt -0.0377 0.0130
vn 0.0000 -1.0000 -0.0000
vn 0.0000 1.0000 -0.0000
vn 1.0000 0.0000 0.0000
vn -0.0000 -0.0000 1.0000
vn -1.0000 -0.0000 -0.0000
vn 0.0000 0.0000 -1.0000
usemtl Material
s off
f 1/1/1 2/2/1 3/3/1 4/4/1
f 5/5/2 8/6/2 7/7/2 6/8/2
f 1/9/3 5/10/3 6/11/3 2/12/3
f 2/13/4 6/14/4 7/15/4 3/16/4
f 3/17/5 7/18/5 8/19/5 4/20/5
f 5/21/6 1/22/6 4/23/6 8/24/6
